<svg width="1983" height="751" viewBox="0 0 1983 751" fill="none" xmlns="http://www.w3.org/2000/svg">
<path d="M1152.19 14.7422C1137.31 5.09704 1120.07 -0.00297521 1100 0H882.479C862.408 -0.00297521 845.168 5.09704 830.284 14.7422C827.819 16.4167 825.587 17.8343 822.687 19.1154L820.242 20.1139C809.65 26.529 795.988 30.4495 782.639 32.9498L779.549 33.4505C772.931 34.5857 766.664 35.1062 759.855 35.1316L46.1418 35.4835C32.3656 35.4461 20.1936 36.3783 9.81583 43.4663C1.03997 50.2669 0.276192 57.5011 0.367266 66.2498L0.00866497 692.732C-0.0263018 697.749 -0.0550613 702.62 2.05061 707.463L3.07362 709.264C5.09326 712.928 7.89364 715.552 12.0443 718.161L14.8117 719.637C22.3931 723.798 31.4309 724.971 40.8387 725.023L294.899 725.307C308.283 726.151 316.062 730.702 324.567 737.697C326.291 739.201 326.291 739.201 327.762 740.289L327.763 740.29L331.5 742.947C345.434 750.883 345.434 750.883 381.016 750.692H1601.46C1637.04 750.883 1637.04 750.883 1650.98 742.947L1654.72 740.29L1654.72 740.289C1656.19 739.201 1656.19 739.201 1657.91 737.697C1666.42 730.702 1674.2 726.151 1687.58 725.307L1941.64 725.023C1951.05 724.971 1960.09 723.798 1967.67 719.637L1970.43 718.161C1974.58 715.552 1977.39 712.928 1979.4 709.264L1980.43 707.463C1982.53 702.62 1982.5 697.749 1982.47 692.732L1982.11 66.2498C1982.2 57.5011 1981.44 50.2669 1972.66 43.4663C1962.28 36.3783 1950.11 35.4461 1936.34 35.4835L1222.62 35.1316C1215.81 35.1062 1209.55 34.5857 1202.93 33.4505L1199.84 32.9498C1186.49 30.4495 1172.83 26.529 1162.24 20.1139L1159.79 19.1154C1156.89 17.8343 1154.66 16.4167 1152.19 14.7422Z" fill="#D9D9D9"/>
</svg>
